<?xml version="1.0" encoding="UTF-8"?>
<svg version="1.1" xmlns="http://www.w3.org/2000/svg" width="64" height="64" viewBox="24 17 24 30">
<path d="M0 0 C0.85851562 0.1340625 1.71703125 0.268125 2.6015625 0.40625 C3.0390625 2.96875 3.0390625 2.96875 2.6015625 6.40625 C0.51473524 9.0265519 -1.86529998 11.2220651 -4.3984375 13.40625 C-3.09928206 16.28381859 -2.19415234 17.59107943 0.2265625 19.78125 C2.6015625 22.40625 2.6015625 22.40625 2.9140625 25.71875 C2.8109375 26.605625 2.7078125 27.4925 2.6015625 28.40625 C-1.28384932 28.832282 -2.91096487 28.76903671 -6.1015625 26.39453125 C-7.36226562 25.07001953 -7.36226562 25.07001953 -8.6484375 23.71875 C-9.49921875 22.84863281 -10.35 21.97851562 -11.2265625 21.08203125 C-13.28803524 18.54226717 -14.39677361 16.49471365 -15.3984375 13.40625 C-13.54266559 11.22016271 -11.66687391 9.05930653 -9.7734375 6.90625 C-9.25136719 6.28621094 -8.72929687 5.66617187 -8.19140625 5.02734375 C-4.15905802 0.49717475 -4.15905802 0.49717475 0 0 Z " fill="#5D6294" transform="translate(39.3984375,17.59375)"/>
</svg>
