<?xml version="1.0" encoding="UTF-8"?>
<svg version="1.1" xmlns="http://www.w3.org/2000/svg" width="64" height="64">
<path d="M0 0 C0 3.96 0 7.92 0 12 C2.1965625 11.87625 2.1965625 11.87625 4.4375 11.75 C11.36983579 11.75980528 16.78338544 14.16205816 22.3125 18.25 C27.0531208 23.10086779 29.85947507 28.97536608 30.09765625 35.796875 C30.08605469 36.77140625 30.07445312 37.7459375 30.0625 38.75 C30.05347656 39.73484375 30.04445312 40.7196875 30.03515625 41.734375 C30.02355469 42.48203125 30.01195312 43.2296875 30 44 C27.86731834 41.94348554 26.02349482 40.03524223 24.375 37.5625 C18.897926 31.65302542 11.91654174 29.48997337 4.03125 29.140625 C2 29 2 29 0 28 C0 31.96 0 35.92 0 40 C-3.70243723 38.51902511 -5.76357156 37.64286328 -8.7421875 35.35546875 C-9.41636719 34.84306641 -10.09054688 34.33066406 -10.78515625 33.80273438 C-11.47480469 33.26970703 -12.16445313 32.73667969 -12.875 32.1875 C-14.24680458 31.13854924 -15.61919584 30.09036525 -16.9921875 29.04296875 C-17.98750488 28.28185791 -17.98750488 28.28185791 -19.00292969 27.50537109 C-21.96009195 25.27629255 -24.97526187 23.13627067 -28 21 C-26.57059683 17.50558856 -24.95259415 15.97422151 -21.82421875 13.90625 C-20.58188477 13.07287109 -20.58188477 13.07287109 -19.31445312 12.22265625 C-18.44755859 11.65417969 -17.58066406 11.08570313 -16.6875 10.5 C-14.98189318 9.36635628 -13.27743299 8.23098522 -11.57421875 7.09375 C-10.7754834 6.56265625 -9.97674805 6.0315625 -9.15380859 5.484375 C-7.38574286 4.26584863 -5.69028626 2.94261643 -4.01953125 1.59375 C-2 0 -2 0 0 0 Z " fill="#5E6393" transform="translate(31,10)"/>
</svg>
